{
  "accessors": [
    {
      "bufferView": 2,
      "componentType": 5126,
      "count": 6893,
      "max": [
        6.9837498664855957,
        6.0379014015197754,
        1.8430651426315308
      ],
      "min": [
        -7.5084915161132812,
        -5.6344423294067383,
        -3.5213429927825928
      ],
      "type": "VEC3"
    },
    {
      "bufferView": 2,
      "byteOffset": 82716,
      "componentType": 5126,
      "count": 6893,
      "max": [
        1,
        1,
        1
      ],
      "min": [
        -1,
        -1,
        -1
      ],
      "type": "VEC3"
    },
    {
      "bufferView": 3,
      "componentType": 5126,
      "count": 6893,
      "max": [
        1,
        0.9985538125038147,
        1,
        1
      ],
      "min": [
        -1,
        -1,
        -0.99999856948852539,
        -1
      ],
      "type": "VEC4"
    },
    {
      "bufferView": 3,
      "byteOffset": 110288,
      "componentType": 5126,
      "count": 6893,
      "max": [
        1,
        1,
        1,
        1
      ],
      "min": [
        1,
        1,
        1,
        1
      ],
      "type": "VEC4"
    },
    {
      "bufferView": 1,
      "componentType": 5126,
      "count": 6893,
      "max": [
        0.94008517265319824,
        0.99319881200790405
      ],
      "min": [
        0.0070415688678622246,
        0.17592704296112061
      ],
      "type": "VEC2"
    },
    {
      "bufferView": 0,
      "componentType": 5125,
      "count": 11832,
      "max": [
        6892
      ],
      "min": [
        0
      ],
      "type": "SCALAR"
    }
  ],
  "asset": {
    "extras": {
      "author": "Shmupfreak (https://sketchfab.com/countdowntozero)",
      "license": "CC-BY-4.0 (http://creativecommons.org/licenses/by/4.0/)",
      "source": "https://sketchfab.com/models/4194205458a54fed885b8cca462d5670",
      "title": "R-Gray 2"
    },
    "generator": "Sketchfab-3.18.6",
    "version": "2.0"
  },
  "bufferViews": [
    {
      "buffer": 0,
      "byteLength": 47328,
      "byteOffset": 0,
      "name": "floatBufferViews",
      "target": 34963
    },
    {
      "buffer": 0,
      "byteLength": 55144,
      "byteOffset": 47328,
      "byteStride": 8,
      "name": "floatBufferViews",
      "target": 34962
    },
    {
      "buffer": 0,
      "byteLength": 165432,
      "byteOffset": 102472,
      "byteStride": 12,
      "name": "floatBufferViews",
      "target": 34962
    },
    {
      "buffer": 0,
      "byteLength": 220576,
      "byteOffset": 267904,
      "byteStride": 16,
      "name": "floatBufferViews",
      "target": 34962
    }
  ],
  "buffers": [
    {
      "byteLength": 488480,
      "uri": "scene.bin"
    }
  ],
  "images": [
    {
      "uri": "textures/02_-_Default_baseColor.png"
    }
  ],
  "materials": [
    {
      "doubleSided": true,
      "emissiveFactor": [
        0,
        0,
        0
      ],
      "name": "02_-_Default",
      "pbrMetallicRoughness": {
        "baseColorFactor": [
          1,
          1,
          1,
          1
        ],
        "baseColorTexture": {
          "index": 0,
          "texCoord": 0
        },
        "metallicFactor": 1,
        "roughnessFactor": 0.59999999999999998
      }
    }
  ],
  "meshes": [
    {
      "primitives": [
        {
          "attributes": {
            "COLOR_0": 3,
            "NORMAL": 1,
            "POSITION": 0,
            "TANGENT": 2,
            "TEXCOORD_0": 4
          },
          "indices": 5,
          "material": 0,
          "mode": 4
        }
      ]
    }
  ],
  "nodes": [
    {
      "children": [
        1
      ],
      "name": "RootNode (gltf orientation matrix)",
      "rotation": [
        -0.70710678118654746,
        -0,
        -0,
        0.70710678118654757
      ]
    },
    {
      "children": [
        2
      ],
      "name": "RootNode (model correction matrix)"
    },
    {
      "children": [
        3
      ],
      "matrix": [
        1.1361007636878639e-06,
        4.7651519775390625,
        2.8402519092196599e-07,
        0,
        2.0762742281021929e-07,
        -4.1525484562043857e-07,
        3.483410120010376,
        0,
        6.5574064254760742,
        -1.9542594600352459e-06,
        -7.817037612767308e-07,
        0,
        -4.1723251342773438e-07,
        0,
        0,
        1
      ],
      "name": "Box11"
    },
    {
      "children": [
        4
      ],
      "matrix": [
        6.5877539551656423e-08,
        1.254844993776289e-08,
        0.1524993168205673,
        0,
        0.20985689537573685,
        8.5554981007745416e-09,
        -4.7872047550341154e-08,
        0,
        -6.2542227344191077e-09,
        0.28707501142501668,
        -6.665957178104513e-09,
        0,
        -0.042334098368855648,
        0.71123611927032993,
        0.04001145467133628,
        1
      ],
      "name": "3DSMeshMatrix"
    },
    {
      "mesh": 0,
      "name": ""
    }
  ],
  "samplers": [
    {
      "magFilter": 9729,
      "minFilter": 9987,
      "wrapS": 10497,
      "wrapT": 10497
    }
  ],
  "scene": 0,
  "scenes": [
    {
      "name": "OSG_Scene",
      "nodes": [
        0
      ]
    }
  ],
  "textures": [
    {
      "sampler": 0,
      "source": 0
    }
  ]
}

